<svg width="56" height="56" viewBox="0 0 56 56" fill="none" xmlns="http://www.w3.org/2000/svg">
<path d="M16.8421 36.6579H41.7105C43.2303 36.6579 44.4737 37.9013 44.4737 39.421C44.4737 40.9408 43.2303 42.1842 41.7105 42.1842H14.0789C12.5592 42.1842 11.3158 40.9408 11.3158 39.421V11.7895H5.78946C4.26973 11.7895 3.02631 10.546 3.02631 9.02631C3.02631 7.50657 4.26973 6.26315 5.78946 6.26315H14.0789C15.5987 6.26315 16.8421 7.50657 16.8421 9.02631V14.5526H52.7631L41.7105 33.8947H16.8421V36.6579ZM15.4605 44.9474C17.7539 44.9474 19.6053 46.7987 19.6053 49.0921C19.6053 51.3855 17.7539 53.2368 15.4605 53.2368C13.1671 53.2368 11.3158 51.3855 11.3158 49.0921C11.3158 46.7987 13.1671 44.9474 15.4605 44.9474ZM40.3289 44.9474C42.6224 44.9474 44.4737 46.7987 44.4737 49.0921C44.4737 51.3855 42.6224 53.2368 40.3289 53.2368C38.0355 53.2368 36.1842 51.3855 36.1842 49.0921C36.1842 46.7987 38.0355 44.9474 40.3289 44.9474Z" fill="white"/>
</svg>
