<svg width="56" height="56" viewBox="0 0 56 56" fill="none" xmlns="http://www.w3.org/2000/svg">
<path d="M16.8422 36.6579H41.7106C43.2303 36.6579 44.4737 37.9013 44.4737 39.421C44.4737 40.9408 43.2303 42.1842 41.7106 42.1842H14.079C12.5593 42.1842 11.3158 40.9408 11.3158 39.421V11.7895H5.78953C4.26979 11.7895 3.02637 10.546 3.02637 9.02631C3.02637 7.50657 4.26979 6.26315 5.78953 6.26315H14.079C15.5987 6.26315 16.8422 7.50657 16.8422 9.02631V14.5526H52.7632L41.7106 33.8947H16.8422V36.6579ZM15.4606 44.9474C17.754 44.9474 19.6053 46.7987 19.6053 49.0921C19.6053 51.3855 17.754 53.2368 15.4606 53.2368C13.1672 53.2368 11.3158 51.3855 11.3158 49.0921C11.3158 46.7987 13.1672 44.9474 15.4606 44.9474ZM40.329 44.9474C42.6224 44.9474 44.4737 46.7987 44.4737 49.0921C44.4737 51.3855 42.6224 53.2368 40.329 53.2368C38.0356 53.2368 36.1843 51.3855 36.1843 49.0921C36.1843 46.7987 38.0356 44.9474 40.329 44.9474Z" fill="white"/>
</svg>
