<svg width="56" height="56" viewBox="0 0 56 56" fill="none" xmlns="http://www.w3.org/2000/svg">
<path fill-rule="evenodd" clip-rule="evenodd" d="M37.3684 21.4605C37.3684 23.9033 36.398 26.246 34.6707 27.9733C32.9434 29.7006 30.6006 30.671 28.1579 30.671C25.7151 30.671 23.3723 29.7006 21.645 27.9733C19.9177 26.246 18.9473 23.9033 18.9473 21.4605C18.9473 19.0177 19.9177 16.675 21.645 14.9477C23.3723 13.2204 25.7151 12.25 28.1579 12.25C30.6006 12.25 32.9434 13.2204 34.6707 14.9477C36.398 16.675 37.3684 19.0177 37.3684 21.4605ZM32.7631 21.4605C32.7631 22.6819 32.2779 23.8533 31.4143 24.7169C30.5506 25.5806 29.3792 26.0658 28.1579 26.0658C26.9365 26.0658 25.7651 25.5806 24.9014 24.7169C24.0378 23.8533 23.5526 22.6819 23.5526 21.4605C23.5526 20.2391 24.0378 19.0677 24.9014 18.2041C25.7651 17.3404 26.9365 16.8552 28.1579 16.8552C29.3792 16.8552 30.5506 17.3404 31.4143 18.2041C32.2779 19.0677 32.7631 20.2391 32.7631 21.4605Z" fill="white"/>
<path fill-rule="evenodd" clip-rule="evenodd" d="M28.1579 3.03946C14.1694 3.03946 2.82892 14.3799 2.82892 28.3684C2.82892 42.3569 14.1694 53.6973 28.1579 53.6973C42.1463 53.6973 53.4868 42.3569 53.4868 28.3684C53.4868 14.3799 42.1463 3.03946 28.1579 3.03946ZM7.43418 28.3684C7.43418 33.1809 9.07596 37.6112 11.8276 41.1296C13.76 38.5919 16.253 36.5353 19.1118 35.1204C21.9706 33.7056 25.1178 32.9709 28.3075 32.9737C31.456 32.9707 34.5636 33.6864 37.3936 35.0663C40.2235 36.4461 42.7012 38.4538 44.6378 40.9362C46.6329 38.3195 47.9762 35.2653 48.5566 32.0263C49.137 28.7874 48.9378 25.4568 47.9754 22.3101C47.0131 19.1635 45.3153 16.2912 43.0225 13.931C40.7297 11.5708 37.9078 9.79045 34.7903 8.73734C31.6729 7.68423 28.3494 7.3886 25.095 7.87492C21.8406 8.36124 18.7488 9.61552 16.0754 11.534C13.402 13.4525 11.2239 15.9799 9.72122 18.9073C8.21857 21.8347 7.4346 25.0779 7.43418 28.3684ZM28.1579 49.0921C23.4005 49.0992 18.7868 47.4626 15.0973 44.4592C16.5824 42.3333 18.559 40.5975 20.859 39.3996C23.159 38.2017 25.7143 37.5771 28.3075 37.5789C30.8684 37.5769 33.3929 38.1858 35.6712 39.3552C37.9495 40.5246 39.9159 42.2207 41.4072 44.3026C37.6891 47.4036 32.9993 49.0989 28.1579 49.0921Z" fill="white"/>
<circle cx="27.6644" cy="21.9539" r="6.41447" fill="white"/>
<ellipse cx="29.1447" cy="43.171" rx="14.8026" ry="6.90789" fill="white"/>
</svg>
