<svg width="56" height="56" viewBox="0 0 56 56" fill="none" xmlns="http://www.w3.org/2000/svg">
<path fill-rule="evenodd" clip-rule="evenodd" d="M37.3683 21.4605C37.3683 23.9033 36.3979 26.246 34.6706 27.9733C32.9433 29.7006 30.6006 30.671 28.1578 30.671C25.715 30.671 23.3723 29.7006 21.645 27.9733C19.9177 26.246 18.9473 23.9033 18.9473 21.4605C18.9473 19.0177 19.9177 16.675 21.645 14.9477C23.3723 13.2204 25.715 12.25 28.1578 12.25C30.6006 12.25 32.9433 13.2204 34.6706 14.9477C36.3979 16.675 37.3683 19.0177 37.3683 21.4605ZM32.7631 21.4605C32.7631 22.6819 32.2779 23.8533 31.4142 24.7169C30.5505 25.5806 29.3792 26.0658 28.1578 26.0658C26.9364 26.0658 25.765 25.5806 24.9014 24.7169C24.0377 23.8533 23.5525 22.6819 23.5525 21.4605C23.5525 20.2391 24.0377 19.0677 24.9014 18.2041C25.765 17.3404 26.9364 16.8552 28.1578 16.8552C29.3792 16.8552 30.5505 17.3404 31.4142 18.2041C32.2779 19.0677 32.7631 20.2391 32.7631 21.4605Z" fill="white"/>
<path fill-rule="evenodd" clip-rule="evenodd" d="M28.1578 3.03946C14.1693 3.03946 2.82886 14.3799 2.82886 28.3684C2.82886 42.3569 14.1693 53.6973 28.1578 53.6973C42.1463 53.6973 53.4867 42.3569 53.4867 28.3684C53.4867 14.3799 42.1463 3.03946 28.1578 3.03946ZM7.43412 28.3684C7.43412 33.1809 9.0759 37.6112 11.8275 41.1296C13.76 38.5919 16.253 36.5353 19.1118 35.1204C21.9706 33.7056 25.1177 32.9709 28.3075 32.9737C31.4559 32.9707 34.5635 33.6864 37.3935 35.0663C40.2235 36.4461 42.7011 38.4538 44.6377 40.9362C46.6328 38.3195 47.9762 35.2653 48.5566 32.0263C49.137 28.7874 48.9377 25.4568 47.9754 22.3101C47.013 19.1635 45.3152 16.2912 43.0224 13.931C40.7296 11.5708 37.9077 9.79045 34.7903 8.73734C31.6728 7.68423 28.3494 7.3886 25.095 7.87492C21.8406 8.36124 18.7488 9.61552 16.0754 11.534C13.402 13.4525 11.2238 15.9799 9.72116 18.9073C8.21851 21.8347 7.43454 25.0779 7.43412 28.3684ZM28.1578 49.0921C23.4004 49.0992 18.7867 47.4626 15.0973 44.4592C16.5823 42.3333 18.5589 40.5975 20.8589 39.3996C23.1589 38.2017 25.7142 37.5771 28.3075 37.5789C30.8684 37.5769 33.3928 38.1858 35.6711 39.3552C37.9494 40.5246 39.9159 42.2207 41.4071 44.3026C37.6891 47.4036 32.9993 49.0989 28.1578 49.0921Z" fill="white"/>
<circle cx="27.6645" cy="21.9539" r="6.41447" fill="white"/>
<ellipse cx="29.1447" cy="43.171" rx="14.8026" ry="6.90789" fill="white"/>
</svg>
