<svg width="60" height="60" viewBox="0 0 60 60" fill="none" xmlns="http://www.w3.org/2000/svg">
<path d="M38.75 35H36.775L36.075 34.325C38.6097 31.3851 40.0028 27.6317 40 23.75C40 20.5361 39.047 17.3943 37.2614 14.722C35.4758 12.0497 32.9379 9.96689 29.9686 8.73696C26.9993 7.50704 23.732 7.18524 20.5798 7.81225C17.4276 8.43926 14.5321 9.98692 12.2595 12.2595C9.98692 14.5321 8.43926 17.4276 7.81225 20.5798C7.18524 23.732 7.50704 26.9993 8.73696 29.9686C9.96689 32.9379 12.0497 35.4758 14.722 37.2614C17.3943 39.047 20.5361 40 23.75 40C27.775 40 31.475 38.525 34.325 36.075L35 36.775V38.75L47.5 51.225L51.225 47.5L38.75 35ZM23.75 35C17.525 35 12.5 29.975 12.5 23.75C12.5 17.525 17.525 12.5 23.75 12.5C29.975 12.5 35 17.525 35 23.75C35 29.975 29.975 35 23.75 35Z" fill="white"/>
</svg>
