<svg width="43" height="43" viewBox="0 0 43 43" fill="none" xmlns="http://www.w3.org/2000/svg">
<path d="M23.7733 6.57327C24.3109 6.03585 25.0399 5.73395 25.8 5.73395C26.5602 5.73395 27.2892 6.03585 27.8267 6.57327L40.7267 19.4733C41.2642 20.0108 41.5661 20.7399 41.5661 21.5C41.5661 22.2601 41.2642 22.9892 40.7267 23.5267L27.8267 36.4267C27.2861 36.9489 26.562 37.2379 25.8103 37.2313C25.0587 37.2248 24.3397 36.9233 23.8082 36.3918C23.2767 35.8603 22.9752 35.1413 22.9687 34.3897C22.9622 33.6381 23.2511 32.9139 23.7733 32.3733L31.5333 24.3667H4.30002C3.53973 24.3667 2.81058 24.0646 2.27298 23.527C1.73537 22.9894 1.43335 22.2603 1.43335 21.5C1.43335 20.7397 1.73537 20.0106 2.27298 19.473C2.81058 18.9354 3.53973 18.6333 4.30002 18.6333H31.5333L23.7733 10.6267C23.2359 10.0892 22.934 9.36014 22.934 8.6C22.934 7.83986 23.2359 7.11085 23.7733 6.57327Z" fill="white"/>
</svg>
