<svg width="44" height="47" viewBox="0 0 44 47" fill="none" xmlns="http://www.w3.org/2000/svg">
<g filter="url(#filter0_d_14_6630)">
<path d="M21.1036 34.5004L21.1 34.4971C16.4549 30.285 12.8026 26.9616 10.2821 23.878C7.7893 20.8282 6.66799 18.322 6.66799 15.7862C6.66799 11.666 9.85588 8.48995 13.9642 8.48995C16.3079 8.48995 18.599 9.59404 20.0833 11.3235L21.9953 13.5511L23.9072 11.3235C25.3915 9.59404 27.6827 8.48995 30.0263 8.48995C34.1347 8.48995 37.3226 11.666 37.3226 15.7862C37.3226 18.322 36.2012 20.8282 33.7085 23.878C31.188 26.9616 27.5357 30.285 22.8906 34.4971L22.8869 34.5004L21.9953 35.3121L21.1036 34.5004Z" stroke="black" stroke-width="5.03911"/>
</g>
<defs>
<filter id="filter0_d_14_6630" x="-3.29007" y="0.616333" width="50.5709" height="50.5707" filterUnits="userSpaceOnUse" color-interpolation-filters="sRGB">
<feFlood flood-opacity="0" result="BackgroundImageFix"/>
<feColorMatrix in="SourceAlpha" type="matrix" values="0 0 0 0 0 0 0 0 0 0 0 0 0 0 0 0 0 0 127 0" result="hardAlpha"/>
<feOffset dy="3.86917"/>
<feGaussianBlur stdDeviation="1.93459"/>
<feComposite in2="hardAlpha" operator="out"/>
<feColorMatrix type="matrix" values="0 0 0 0 0 0 0 0 0 0 0 0 0 0 0 0 0 0 0.25 0"/>
<feBlend mode="normal" in2="BackgroundImageFix" result="effect1_dropShadow_14_6630"/>
<feBlend mode="normal" in="SourceGraphic" in2="effect1_dropShadow_14_6630" result="shape"/>
</filter>
</defs>
</svg>
