<svg width="44" height="47" viewBox="0 0 44 47" fill="none" xmlns="http://www.w3.org/2000/svg">
<g filter="url(#filter0_d_14_6787)">
<path d="M21.1036 34.5005L21.1 34.4972C16.4549 30.285 12.8026 26.9617 10.2821 23.8781C7.7893 20.8283 6.66799 18.322 6.66799 15.7862C6.66799 11.6661 9.85588 8.49001 13.9642 8.49001C16.3079 8.49001 18.599 9.5941 20.0833 11.3235L21.9953 13.5512L23.9072 11.3235C25.3915 9.5941 27.6827 8.49001 30.0263 8.49001C34.1347 8.49001 37.3226 11.6661 37.3226 15.7862C37.3226 18.322 36.2012 20.8283 33.7085 23.8781C31.188 26.9617 27.5357 30.285 22.8906 34.4972L22.8869 34.5005L21.9953 35.3122L21.1036 34.5005Z" stroke="black" stroke-width="5.03911"/>
</g>
<defs>
<filter id="filter0_d_14_6787" x="-3.29007" y="0.616333" width="50.5709" height="50.5707" filterUnits="userSpaceOnUse" color-interpolation-filters="sRGB">
<feFlood flood-opacity="0" result="BackgroundImageFix"/>
<feColorMatrix in="SourceAlpha" type="matrix" values="0 0 0 0 0 0 0 0 0 0 0 0 0 0 0 0 0 0 127 0" result="hardAlpha"/>
<feOffset dy="3.86917"/>
<feGaussianBlur stdDeviation="1.93459"/>
<feComposite in2="hardAlpha" operator="out"/>
<feColorMatrix type="matrix" values="0 0 0 0 0 0 0 0 0 0 0 0 0 0 0 0 0 0 0.25 0"/>
<feBlend mode="normal" in2="BackgroundImageFix" result="effect1_dropShadow_14_6787"/>
<feBlend mode="normal" in="SourceGraphic" in2="effect1_dropShadow_14_6787" result="shape"/>
</filter>
</defs>
</svg>
